<mxfile host="app.diagrams.net" modified="2021-02-22T16:28:19.788Z" agent="5.0 (X11)" etag="xjMutiliPToUwHZVgnaI" version="14.4.2" type="github">
  <diagram id="8pdb_aFv2vePlNzJQSAP" name="Page-1">
    <mxGraphModel dx="7950" dy="4080" grid="1" gridSize="10" guides="1" tooltips="1" connect="1" arrows="1" fold="1" page="1" pageScale="1" pageWidth="850" pageHeight="1100" math="0" shadow="0">
      <root>
        <mxCell id="0" />
        <mxCell id="1" parent="0" />
        <mxCell id="S7aSZjl13tURBBZYe18S-1" value="" style="group;rounded=1;" parent="1" vertex="1" connectable="0">
          <mxGeometry x="1000" y="70" width="550" height="550" as="geometry" />
        </mxCell>
        <mxCell id="S7aSZjl13tURBBZYe18S-2" value="" style="group;rounded=1;" parent="S7aSZjl13tURBBZYe18S-1" vertex="1" connectable="0">
          <mxGeometry width="550" height="550" as="geometry" />
        </mxCell>
        <mxCell id="S7aSZjl13tURBBZYe18S-3" value="" style="whiteSpace=wrap;html=1;rounded=1;" parent="S7aSZjl13tURBBZYe18S-2" vertex="1">
          <mxGeometry width="550" height="550" as="geometry" />
        </mxCell>
        <mxCell id="S7aSZjl13tURBBZYe18S-4" value="" style="shape=image;verticalLabelPosition=bottom;labelBackgroundColor=#ffffff;verticalAlign=top;aspect=fixed;imageAspect=0;image=https://stegosource.com/wp-content/uploads//postgresql.svg;rounded=1;" parent="S7aSZjl13tURBBZYe18S-2" vertex="1">
          <mxGeometry x="80" y="430" width="100" height="100" as="geometry" />
        </mxCell>
        <mxCell id="S7aSZjl13tURBBZYe18S-5" value="" style="shape=image;verticalLabelPosition=bottom;labelBackgroundColor=#ffffff;verticalAlign=top;aspect=fixed;imageAspect=0;image=data:image/svg+xml,PHN2ZyB4bWxuczpkYz0iaHR0cDovL3B1cmwub3JnL2RjL2VsZW1lbnRzLzEuMS8iIHhtbG5zOmNjPSJodHRwOi8vY3JlYXRpdmVjb21tb25zLm9yZy9ucyMiIHhtbG5zOnJkZj0iaHR0cDovL3d3dy53My5vcmcvMTk5OS8wMi8yMi1yZGYtc3ludGF4LW5zIyIgeG1sbnM6c3ZnPSJodHRwOi8vd3d3LnczLm9yZy8yMDAwL3N2ZyIgeG1sbnM9Imh0dHA6Ly93d3cudzMub3JnLzIwMDAvc3ZnIiB4bWxuczpzb2RpcG9kaT0iaHR0cDovL3NvZGlwb2RpLnNvdXJjZWZvcmdlLm5ldC9EVEQvc29kaXBvZGktMC5kdGQiIHhtbG5zOmlua3NjYXBlPSJodHRwOi8vd3d3Lmlua3NjYXBlLm9yZy9uYW1lc3BhY2VzL2lua3NjYXBlIiBpZD0ic3ZnMiIgdmVyc2lvbj0iMS4xIiBpbmtzY2FwZTp2ZXJzaW9uPSIwLjQ4LjUgcjEwMDQwIiB3aWR0aD0iMjU2IiBoZWlnaHQ9IjI1NiIgc29kaXBvZGk6ZG9jbmFtZT0ib2ZmaWNlLWRhdGFiYXNlLnN2ZyIgdmlld0JveD0iMCAwIDI1NiAyNTYiPiYjeGE7ICA8bWV0YWRhdGEgaWQ9Im1ldGFkYXRhOCI+JiN4YTsgICAgPHJkZjpSREY+JiN4YTsgICAgICA8Y2M6V29yayByZGY6YWJvdXQ9IiI+JiN4YTsgICAgICAgIDxkYzpmb3JtYXQ+aW1hZ2Uvc3ZnK3htbDwvZGM6Zm9ybWF0PiYjeGE7ICAgICAgICA8ZGM6dHlwZSByZGY6cmVzb3VyY2U9Imh0dHA6Ly9wdXJsLm9yZy9kYy9kY21pdHlwZS9TdGlsbEltYWdlIi8+JiN4YTsgICAgICAgIDxkYzp0aXRsZS8+JiN4YTsgICAgICA8L2NjOldvcms+JiN4YTsgICAgPC9yZGY6UkRGPiYjeGE7ICA8L21ldGFkYXRhPiYjeGE7ICA8ZGVmcyBpZD0iZGVmczYiLz4mI3hhOyAgPHNvZGlwb2RpOm5hbWVkdmlldyBwYWdlY29sb3I9IiNmZmZmZmYiIGJvcmRlcmNvbG9yPSIjNjY2NjY2IiBib3JkZXJvcGFjaXR5PSIxIiBvYmplY3R0b2xlcmFuY2U9IjEwIiBncmlkdG9sZXJhbmNlPSIxMCIgZ3VpZGV0b2xlcmFuY2U9IjEwIiBpbmtzY2FwZTpwYWdlb3BhY2l0eT0iMCIgaW5rc2NhcGU6cGFnZXNoYWRvdz0iMiIgaW5rc2NhcGU6d2luZG93LXdpZHRoPSIxMjA0IiBpbmtzY2FwZTp3aW5kb3ctaGVpZ2h0PSI2NDMiIGlkPSJuYW1lZHZpZXc0IiBzaG93Z3JpZD0iZmFsc2UiIGlua3NjYXBlOnpvb209IjAuOTIxODc1IiBpbmtzY2FwZTpjeD0iMTI4IiBpbmtzY2FwZTpjeT0iMTI4IiBpbmtzY2FwZTp3aW5kb3cteD0iMTUiIGlua3NjYXBlOndpbmRvdy15PSIzOSIgaW5rc2NhcGU6d2luZG93LW1heGltaXplZD0iMCIgaW5rc2NhcGU6Y3VycmVudC1sYXllcj0ic3ZnMiIvPiYjeGE7ICA8cGF0aCBpbmtzY2FwZTpjb25uZWN0b3ItY3VydmF0dXJlPSIwIiBpZD0icGF0aDMwMjYiIGQ9Im0gOTguMzMwNTAzLDI0Ny42Nzc1OCBjIC0xMi43OTgwMSwtMS44MDAyOCAtMjcuMDk2NDksLTUuMDczMDcgLTM2LC04LjI0MDA2IC0xOC42MjY0MywtNi42MjU0NCAtMzMuODk4MzksLTE3LjQwNjI3IC0zOC45MTMyNCwtMjcuNDY5NzYgLTIuNDkxMTEsLTQuOTk5MDEgLTIuNTg2NzYsLTUuODQ5MyAtMi41ODY3NiwtMjIuOTk0NjEgMCwtOS45NTYyIDAuMzk4OSwtMTcuODAzNjYgMC45MDQ5OCwtMTcuODAzNjYgMC40OTc3NCwwIDIuMDY2MDEsMS45ODExNiAzLjQ4NTA2LDQuNDAyNTggMTMuMTA2MjQsMjIuMzY0MTEgNTkuNzM2MTgsMzcuMjI1MzcgMTEwLjYwOTk1NywzNS4yNTIwOSA0Ny4wNzY2MywtMS44MjU5OSA4NC40MDM0NiwtMTUuOTkyOTQgOTQuNjAxMDMsLTM1LjkwNDY3IDEuMzM3OTYsLTIuNjEyNSAyLjg1NDY5LC00Ljc1IDMuMzcwNSwtNC43NSAxLjY5OTgsMCAyLjI3ODk1LDYuOTA4NSAxLjgyODE4LDIxLjgwNzY4IC0wLjQwMzIyLDEzLjMyNzYzIC0wLjY4MzExLDE1LjE1NjkzIC0zLjAxMzMxLDE5LjY5NDM2IC04LjEzMjYzLDE1LjgzNjEzIC0zMS41NDcxNSwyOC4wODA3NCAtNjYuMjIwNTMsMzQuNjMwMDIgLTE0LjUwODQ2LDIuNzQwNDIgLTUyLjg1NTQ5LDMuNTE1NjUgLTY4LjA2NTg2NywxLjM3NjAzIHogbSA1LjQ5OTk5NywtNDguNjI3NzcgYyAtMzAuODg3Njk3LC0zLjEwMzAzIC01OS41MDQ5MDcsLTEzLjY0MTQ5IC03Mi45OTM1ODcsLTI2Ljg4MDMyIC04Ljg5OTc0LC04LjczNDkgLTkuNDUzNDMsLTEwLjQ5NyAtOS44MTk1MywtMzEuMjUgLTAuMjEwNTUsLTExLjkzNTA3IDAuMDMxLC0xNy43NSAwLjczNzQ1LC0xNy43NSAwLjU3NzgyLDAgMi4xNzA0NiwxLjc3NCAzLjUzOTIsMy45NDIyMiA4LjY4NzU4LDEzLjc2MjAzIDMxLjMzNTY0LDI1LjI4MDk4IDYwLjkzNjc3LDMwLjk5Mjg2IDU5LjAxODY3NywxMS4zODgzMyAxMjguMDc4MTc3LC0zLjc3ODQ2IDE0My43NjQ3MDcsLTMxLjU3MzQ3IDEuNjY0MjUsLTIuOTQ4ODkgMy40MDUzOCwtNS4zNjE2MSAzLjg2OTE4LC01LjM2MTYxIDEuNTIyNjcsMCAyLjIyODE2LDguOTU3MTcgMS43Njk4NSwyMi40NzA2MiAtMC40MDQyMiwxMS45MTg2OCAtMC43MzA3OCwxMy44NTkzNSAtMy4xNzE1NywxOC44NDgxNCAtMTIuNTg2NjgsMjUuNzI2MjUgLTcxLjA1NzY3LDQyLjM0NTYyIC0xMjguNjMyNDcsMzYuNTYxNTYgeiBtIDMsLTQ4Ljk5NDYyIGMgLTM5LjYyNjI1NywtMy41MDA3IC03My4zNDc3MzcsLTE4LjI3MjQ2IC04Mi43ODEzMDcsLTM2LjI2MjUxIC0yLjUyMjkyLC00LjgxMTI4IC0yLjcwNzk2LC02LjA3ODA1IC0zLjAzOTI2LC0yMC44MDcwOTggLTAuNDMxMTgsLTE5LjE2OTUzIDAuMjExMzIsLTIwLjk5ODk5IDQuODQwOTcsLTEzLjc4NDMgOC40MjAyMywxMy4xMjE4IDI4LjIyMzA1LDIzLjIwNjY0OCA1Ni44OTg5MiwyOC45NzY1NTggNjIuOTE5OTE3LDEyLjY2MDE5IDEzMy4zMDQ5NjcsLTIuODY4MjkgMTQ4LjQ4MTgyNywtMzIuNzU4MzQ4IDAuOTA3NjIsLTEuNzg3NSAyLjAxODY2LC0zLjI1IDIuNDY4OTgsLTMuMjUgMS4yNzIzMiwwIDIuMTkwODUsMjYuOTgxMTEgMS4xMzg2MiwzMy40NDYyMTggLTQuNzgxODYsMjkuMzgwODkgLTY0LjM1NjI3LDUwLjA2MjczIC0xMjguMDA4NzUsNDQuNDM5NDggeiBtIDQuODkzNDksLTQ4Ljk4NzgyIEMgNzAuNDk3MTMzLDk4LjQ0NjE1MiAzMi44OTY4MDMsODIuMzkxODMyIDI0LjE4OTAwMyw2My42OTIyOTIgMTIuMjU3NTIzLDM4LjA3MDA2MiA0OC4yODU3OTMsMTMuMDUyNzYyIDEwNS43MTE1NSw3LjA4NDcwMTcgYyAxNi4xNjMzMSwtMS42Nzk4IDQ3LjQ5NDI1LC0wLjY3NjYxIDYxLjY4NDgyLDEuOTc1MSAxNi42NjU3NCwzLjExNDIyMDMgMjcuNzM5MzcsNi42MDIyNTAzIDQwLjE2MjUsMTIuNjUwNTcwMyAxOC4yMDMxMSw4Ljg2MjM3IDI3LjI3MTYzLDE5LjQzOTM4IDI3LjI3MTYzLDMxLjgwODA5IDAsMjkuNDkzNTYgLTU3LjUzOTM5LDUxLjcxNzY4OCAtMTIzLjEwNjUxLDQ3LjU0ODkwOCB6IiBzdHlsZT0iZmlsbDojMDA3YWMzO2ZpbGwtb3BhY2l0eToxIi8+JiN4YTs8L3N2Zz4=;rounded=1;" parent="S7aSZjl13tURBBZYe18S-2" vertex="1">
          <mxGeometry x="147" y="120" width="256" height="256" as="geometry" />
        </mxCell>
        <mxCell id="S7aSZjl13tURBBZYe18S-6" style="orthogonalLoop=1;jettySize=auto;html=1;strokeWidth=3;edgeStyle=orthogonalEdgeStyle;elbow=vertical;" parent="1" source="S7aSZjl13tURBBZYe18S-15" target="S7aSZjl13tURBBZYe18S-13" edge="1">
          <mxGeometry relative="1" as="geometry">
            <mxPoint x="539.6152499999998" y="375" as="sourcePoint" />
            <mxPoint x="306.3499999999999" y="355.375" as="targetPoint" />
          </mxGeometry>
        </mxCell>
        <mxCell id="S7aSZjl13tURBBZYe18S-7" style="edgeStyle=orthogonalEdgeStyle;orthogonalLoop=1;jettySize=auto;html=1;shadow=0;strokeWidth=3;startArrow=classic;startFill=1;" parent="1" source="S7aSZjl13tURBBZYe18S-26" target="S7aSZjl13tURBBZYe18S-15" edge="1">
          <mxGeometry relative="1" as="geometry" />
        </mxCell>
        <mxCell id="S7aSZjl13tURBBZYe18S-8" style="edgeStyle=orthogonalEdgeStyle;orthogonalLoop=1;jettySize=auto;html=1;shadow=0;strokeWidth=3;startArrow=classic;startFill=1;" parent="1" source="S7aSZjl13tURBBZYe18S-26" target="S7aSZjl13tURBBZYe18S-13" edge="1">
          <mxGeometry relative="1" as="geometry" />
        </mxCell>
        <mxCell id="S7aSZjl13tURBBZYe18S-9" style="edgeStyle=orthogonalEdgeStyle;orthogonalLoop=1;jettySize=auto;html=1;shadow=0;strokeWidth=3;startArrow=classic;startFill=1;" parent="1" source="S7aSZjl13tURBBZYe18S-15" target="S7aSZjl13tURBBZYe18S-3" edge="1">
          <mxGeometry relative="1" as="geometry" />
        </mxCell>
        <mxCell id="S7aSZjl13tURBBZYe18S-10" style="orthogonalLoop=1;jettySize=auto;html=1;edgeStyle=orthogonalEdgeStyle;strokeWidth=3;shadow=0;" parent="1" source="S7aSZjl13tURBBZYe18S-11" target="S7aSZjl13tURBBZYe18S-20" edge="1">
          <mxGeometry relative="1" as="geometry" />
        </mxCell>
        <mxCell id="S7aSZjl13tURBBZYe18S-11" value="" style="points=[];aspect=fixed;html=1;align=center;shadow=0;dashed=0;image;image=img/lib/allied_telesis/computer_and_terminals/Personal_Computer_with_Server.svg;rounded=1;" parent="1" vertex="1">
          <mxGeometry x="-2240" y="400" width="235" height="235" as="geometry" />
        </mxCell>
        <mxCell id="S7aSZjl13tURBBZYe18S-12" style="edgeStyle=orthogonalEdgeStyle;orthogonalLoop=1;jettySize=auto;html=1;shadow=0;strokeWidth=3;startArrow=classic;startFill=1;" parent="1" source="S7aSZjl13tURBBZYe18S-13" target="S7aSZjl13tURBBZYe18S-3" edge="1">
          <mxGeometry relative="1" as="geometry" />
        </mxCell>
        <mxCell id="S7aSZjl13tURBBZYe18S-13" value="Cytomine Core" style="shape=image;verticalLabelPosition=bottom;verticalAlign=top;imageAspect=0;image=https://img.icons8.com/color/1600/google-compute-engine.png;rounded=1;" parent="1" vertex="1">
          <mxGeometry x="332" y="1370" width="186" height="186" as="geometry" />
        </mxCell>
        <mxCell id="S7aSZjl13tURBBZYe18S-14" value="Node API" style="group;rounded=1;" parent="1" vertex="1" connectable="0">
          <mxGeometry x="220" y="-720" width="350" height="370" as="geometry" />
        </mxCell>
        <mxCell id="S7aSZjl13tURBBZYe18S-15" value="" style="whiteSpace=wrap;html=1;rounded=1;" parent="S7aSZjl13tURBBZYe18S-14" vertex="1">
          <mxGeometry width="349.99999999999994" height="370" as="geometry" />
        </mxCell>
        <mxCell id="S7aSZjl13tURBBZYe18S-16" value="" style="shape=image;html=1;verticalAlign=top;verticalLabelPosition=bottom;imageAspect=0;aspect=fixed;image=https://cdn2.iconfinder.com/data/icons/nodejs-1/128/nodejs-128.png;rounded=1;" parent="S7aSZjl13tURBBZYe18S-14" vertex="1">
          <mxGeometry x="50" y="280" width="90" height="90" as="geometry" />
        </mxCell>
        <mxCell id="S7aSZjl13tURBBZYe18S-17" value="" style="shape=image;verticalLabelPosition=bottom;labelBackgroundColor=#ffffff;verticalAlign=top;aspect=fixed;imageAspect=0;image=data:image/svg+xml,PHN2ZyB3aWR0aD0iMjU2cHgiIGhlaWdodD0iMjU2cHgiIHZpZXdCb3g9IjAgMCAyNTYgMjU2IiB2ZXJzaW9uPSIxLjEiIHhtbG5zPSJodHRwOi8vd3d3LnczLm9yZy8yMDAwL3N2ZyIgeG1sbnM6eGxpbms9Imh0dHA6Ly93d3cudzMub3JnLzE5OTkveGxpbmsiIHByZXNlcnZlQXNwZWN0UmF0aW89InhNaWRZTWlkIj4mI3hhOwk8Zz4mI3hhOwkJPHBvbHlnb24gZmlsbD0iIzAwN0FDQyIgdHJhbnNmb3JtPSJ0cmFuc2xhdGUoMTI4LjAwMDAwMCwgMTI4LjAwMDAwMCkgc2NhbGUoMSwgLTEpIHRyYW5zbGF0ZSgtMTI4LjAwMDAwMCwgLTEyOC4wMDAwMDApICIgcG9pbnRzPSIwIDEyOCAwIDAgMTI4IDAgMjU2IDAgMjU2IDEyOCAyNTYgMjU2IDEyOCAyNTYgMCAyNTYiLz4mI3hhOwkJPHBhdGggZD0iTTE0Ni42NTgxMzIsMjIzLjQzNjg2MyBMMTQ2LjczOTQwMSwyMTIuOTUzMDU0IEwxMzAuMDc5MDg0LDIxMi45NTMwNTQgTDExMy40MTg3NjcsMjEyLjk1MzA1NCBMMTEzLjQxODc2NywxNjUuNjEzMzcxIEwxMTMuNDE4NzY3LDExOC4yNzM2ODkgTDEwMS42MzQ2NCwxMTguMjczNjg5IEw4OS44NTA1MTI2LDExOC4yNzM2ODkgTDg5Ljg1MDUxMjYsMTY1LjYxMzM3MSBMODkuODUwNTEyNiwyMTIuOTUzMDU0IEw3My4xOTAxOTUxLDIxMi45NTMwNTQgTDU2LjUyOTg3NzYsMjEyLjk1MzA1NCBMNTYuNTI5ODc3NiwyMjMuMjMzNjg5IEM1Ni41Mjk4Nzc2LDIyOC45MjI1NzcgNTYuNjUxNzgyNCwyMzMuNjc2ODYzIDU2LjgxNDMyMjEsMjMzLjc5ODc2OCBDNTYuOTM2MjI2OSwyMzMuOTYxMzA4IDc3LjIxMzA1MjIsMjM0LjA0MjU3NyAxMDEuNzk3MTc5LDIzNC4wMDE5NDMgTDE0Ni41MzYyMjcsMjMzLjg4MDAzOCBMMTQ2LjY1ODEzMiwyMjMuNDM2ODYzIFoiIGZpbGw9IiNGRkZGRkYiIHRyYW5zZm9ybT0idHJhbnNsYXRlKDEwMS42MzQ2NDAsIDE3Ni4xNDI5OTMpIHJvdGF0ZSgtMTgwLjAwMDAwMCkgdHJhbnNsYXRlKC0xMDEuNjM0NjQwLCAtMTc2LjE0Mjk5MykgIi8+JiN4YTsJCTxwYXRoIGQ9Ik0yMDYuNTY2NjMxLDIzNC4yNzIxNDUgQzIxMy4wNjgyMTksMjMyLjY0Njc0OCAyMTguMDI1Njc5LDIyOS43NjE2NjggMjIyLjU3Njc5LDIyNS4wNDgwMTggQzIyNC45MzM2MTYsMjIyLjUyODY1MyAyMjguNDI4MjE5LDIxNy45MzY5MDcgMjI4LjcxMjY2MywyMTYuODM5NzY0IEMyMjguNzkzOTMzLDIxNi41MTQ2ODQgMjE3LjY1OTk2NSwyMDkuMDM3ODU5IDIxMC45MTQ1NjgsMjA0Ljg1MjQ2MiBDMjEwLjY3MDc1OCwyMDQuNjg5OTIyIDIwOS42OTU1MiwyMDUuNzQ2NDMgMjA4LjU5ODM3NywyMDcuMzcxODI3IEMyMDUuMzA2OTQ5LDIxMi4xNjY3NDggMjAxLjg1Mjk4MSwyMTQuMjM5MTI5IDE5Ni41NzA0NDEsMjE0LjYwNDg0MyBDMTg4LjgwOTE3MSwyMTUuMTMzMDk3IDE4My44MTEwNzYsMjExLjA2OTYwNSAxODMuODUxNzExLDIwNC4yODM1NzMgQzE4My44NTE3MTEsMjAyLjI5MjQ2MiAxODQuMTM2MTU1LDIwMS4xMTQwNDkgMTg0Ljk0ODg1NCwxOTkuNDg4NjUzIEMxODYuNjU1NTIsMTk1Ljk1MzQxNCAxODkuODI1MDQ0LDE5My44NDAzOTkgMTk5Ljc4MDYsMTg5LjUzMzA5NyBDMjE4LjEwNjk0OSwxODEuNjQ5OTIyIDIyNS45NDk0ODksMTc2LjQ0ODY1MyAyMzAuODI1Njc5LDE2OS4wNTMwOTcgQzIzNi4yNzA3NTgsMTYwLjgwNDIwOCAyMzcuNDg5ODA2LDE0Ny42Mzg0OTQgMjMzLjc5MjAyOCwxMzcuODQ1NDc4IEMyMjkuNzI4NTM2LDEyNy4xOTkxMjkgMjE5LjY1MTA3NiwxMTkuOTY2MTEzIDIwNS40Njk0ODksMTE3LjU2ODY1MyBDMjAxLjA4MDkxNywxMTYuNzk2NTg5IDE5MC42NzgzNzcsMTE2LjkxODQ5NCAxODUuOTY0NzI3LDExNy43NzE4MjcgQzE3NS42ODQwOTIsMTE5LjYwMDM5OSAxNjUuOTMxNzExLDEyNC42Nzk3NjQgMTU5LjkxNzc0MywxMzEuMzQzODkxIEMxNTcuNTYwOTE3LDEzMy45NDQ1MjYgMTUyLjk2OTE3MSwxNDAuNzMwNTU3IDE1My4yNTM2MTYsMTQxLjIxODE3NiBDMTUzLjM3NTUyLDE0MS4zODA3MTYgMTU0LjQzMjAyOCwxNDIuMDMwODc1IDE1NS42MTA0NDEsMTQyLjcyMTY2OCBDMTU2Ljc0ODIxOSwxNDMuMzcxODI3IDE2MS4wNTU1MiwxNDUuODUwNTU3IDE2NS4xMTkwMTIsMTQ4LjIwNzM4MyBMMTcyLjQ3MzkzMywxNTIuNDc0MDQ5IEwxNzQuMDE4MDYsMTUwLjE5ODQ5NCBDMTc2LjE3MTcxMSwxNDYuOTA3MDY1IDE4MC44ODUzNjIsMTQyLjM5NjU4OSAxODMuNzI5ODA2LDE0MC44OTMwOTcgQzE5MS44OTc0MjUsMTM2LjU4NTc5NSAyMDMuMTEyNjYzLDEzNy4xOTUzMTkgMjA4LjYzOTAxMiwxNDIuMTUyNzggQzIxMC45OTU4MzgsMTQ0LjMwNjQzIDIxMS45NzEwNzYsMTQ2LjU0MTM1MSAyMTEuOTcxMDc2LDE0OS44MzI3OCBDMjExLjk3MTA3NiwxNTIuNzk5MTI5IDIxMS42MDUzNjIsMTU0LjA5OTQ0NiAyMTAuMDYxMjM1LDE1Ni4zMzQzNjcgQzIwOC4wNzAxMjMsMTU5LjE3ODgxMSAyMDQuMDA2NjMxLDE2MS41NzYyNzIgMTkyLjQ2NjMxNCwxNjYuNTc0MzY3IEMxNzkuMjU5OTY1LDE3Mi4yNjMyNTYgMTczLjU3MTA3NiwxNzUuNzk4NDk0IDE2OC4zNjk4MDYsMTgxLjQwNjExMyBDMTY1LjM2MjgyMiwxODQuNjU2OTA3IDE2Mi41MTgzNzcsMTg5Ljg1ODE3NiAxNjEuMzM5OTY1LDE5NC4yMDYxMTMgQzE2MC4zNjQ3MjcsMTk3LjgyMjYyMSAxNjAuMTIwOTE3LDIwNi44ODQyMDggMTYwLjg5Mjk4MSwyMTAuNTQxMzUxIEMxNjMuNjE1NTIsMjIzLjMwMDcxNiAxNzMuMjQ1OTk2LDIzMi4xOTk3NjQgMTg3LjE0MzEzOSwyMzQuODQxMDM0IEMxOTEuNjUzNjE2LDIzNS42OTQzNjcgMjAyLjEzNzQyNSwyMzUuMzY5Mjg3IDIwNi41NjY2MzEsMjM0LjI3MjE0NSBaIiBmaWxsPSIjRkZGRkZGIiB0cmFuc2Zvcm09InRyYW5zbGF0ZSgxOTQuNTc4NTA3LCAxNzYuMTkwMjQwKSBzY2FsZSgxLCAtMSkgdHJhbnNsYXRlKC0xOTQuNTc4NTA3LCAtMTc2LjE5MDI0MCkgIi8+JiN4YTsJPC9nPiYjeGE7PC9zdmc+;rounded=1;" parent="S7aSZjl13tURBBZYe18S-14" vertex="1">
          <mxGeometry x="149.23" y="295" width="60" height="60" as="geometry" />
        </mxCell>
        <mxCell id="S7aSZjl13tURBBZYe18S-18" value="Cloud Run" style="html=1;fillColor=#5184F3;strokeColor=none;verticalAlign=top;labelPosition=center;verticalLabelPosition=bottom;align=center;spacingTop=-6;fontSize=11;fontStyle=1;fontColor=#999999;shape=mxgraph.gcp2.hexIcon;prIcon=cloud_run;rounded=1;" parent="S7aSZjl13tURBBZYe18S-14" vertex="1">
          <mxGeometry x="10" y="10" width="338.46" height="300" as="geometry" />
        </mxCell>
        <mxCell id="S7aSZjl13tURBBZYe18S-19" value="" style="group;rounded=1;" parent="1" vertex="1" connectable="0">
          <mxGeometry x="-1450" y="380" width="350" height="320" as="geometry" />
        </mxCell>
        <mxCell id="S7aSZjl13tURBBZYe18S-20" value="" style="whiteSpace=wrap;html=1;shadow=0;rounded=1;" parent="S7aSZjl13tURBBZYe18S-19" vertex="1">
          <mxGeometry width="350" height="280" as="geometry" />
        </mxCell>
        <mxCell id="S7aSZjl13tURBBZYe18S-21" value="" style="verticalLabelPosition=bottom;html=1;verticalAlign=top;align=center;strokeColor=none;fillColor=#00BEF2;shape=mxgraph.azure.website_generic;pointerEvents=1;shadow=0;rounded=1;" parent="S7aSZjl13tURBBZYe18S-19" vertex="1">
          <mxGeometry x="80.88" y="40" width="188.24" height="160" as="geometry" />
        </mxCell>
        <mxCell id="S7aSZjl13tURBBZYe18S-22" value="" style="shape=image;html=1;verticalAlign=top;verticalLabelPosition=bottom;labelBackgroundColor=#ffffff;imageAspect=0;aspect=fixed;image=https://cdn4.iconfinder.com/data/icons/logos-brands-5/24/netlify-128.png;shadow=0;rounded=1;" parent="S7aSZjl13tURBBZYe18S-19" vertex="1">
          <mxGeometry x="20" y="210" width="60" height="60" as="geometry" />
        </mxCell>
        <mxCell id="S7aSZjl13tURBBZYe18S-23" value="" style="shape=image;verticalLabelPosition=bottom;labelBackgroundColor=#ffffff;verticalAlign=top;aspect=fixed;imageAspect=0;image=https://stegosource.com/wp-content/uploads/vuejs.svg;rounded=1;" parent="S7aSZjl13tURBBZYe18S-19" vertex="1">
          <mxGeometry x="100" y="210" width="60" height="60" as="geometry" />
        </mxCell>
        <mxCell id="S7aSZjl13tURBBZYe18S-24" style="edgeStyle=orthogonalEdgeStyle;orthogonalLoop=1;jettySize=auto;html=1;shadow=0;startArrow=classic;startFill=1;strokeWidth=3;" parent="1" source="S7aSZjl13tURBBZYe18S-20" target="S7aSZjl13tURBBZYe18S-26" edge="1">
          <mxGeometry relative="1" as="geometry" />
        </mxCell>
        <mxCell id="S7aSZjl13tURBBZYe18S-25" value="" style="group;rounded=1;" parent="1" vertex="1" connectable="0">
          <mxGeometry x="-350" y="340" width="310" height="260" as="geometry" />
        </mxCell>
        <mxCell id="S7aSZjl13tURBBZYe18S-26" value="" style="whiteSpace=wrap;html=1;shadow=0;rounded=1;" parent="S7aSZjl13tURBBZYe18S-25" vertex="1">
          <mxGeometry width="310" height="260" as="geometry" />
        </mxCell>
        <mxCell id="S7aSZjl13tURBBZYe18S-27" value="" style="shape=image;html=1;verticalAlign=top;verticalLabelPosition=bottom;imageAspect=0;aspect=fixed;image=https://cdn4.iconfinder.com/data/icons/logos-brands-5/24/nginx-128.png;rounded=1;" parent="S7aSZjl13tURBBZYe18S-25" vertex="1">
          <mxGeometry x="110" y="80" width="100" height="100" as="geometry" />
        </mxCell>
        <mxCell id="S7aSZjl13tURBBZYe18S-28" style="edgeStyle=orthogonalEdgeStyle;orthogonalLoop=1;jettySize=auto;html=1;shadow=0;startArrow=none;startFill=0;strokeWidth=3;" parent="1" source="S7aSZjl13tURBBZYe18S-29" target="S7aSZjl13tURBBZYe18S-35" edge="1">
          <mxGeometry relative="1" as="geometry">
            <mxPoint x="-1920" y="-190.00000000000023" as="targetPoint" />
          </mxGeometry>
        </mxCell>
        <mxCell id="S7aSZjl13tURBBZYe18S-29" value="" style="html=1;verticalLabelPosition=bottom;align=center;labelBackgroundColor=#ffffff;verticalAlign=top;strokeWidth=2;strokeColor=#0080F0;shadow=0;dashed=0;shape=mxgraph.ios7.icons.mail;rounded=1;" parent="1" vertex="1">
          <mxGeometry x="-440" y="-490" width="242.73" height="133.5" as="geometry" />
        </mxCell>
        <mxCell id="S7aSZjl13tURBBZYe18S-30" style="edgeStyle=orthogonalEdgeStyle;orthogonalLoop=1;jettySize=auto;html=1;shadow=0;startArrow=none;startFill=0;strokeWidth=3;" parent="1" source="S7aSZjl13tURBBZYe18S-15" target="S7aSZjl13tURBBZYe18S-29" edge="1">
          <mxGeometry relative="1" as="geometry" />
        </mxCell>
        <mxCell id="S7aSZjl13tURBBZYe18S-31" style="edgeStyle=orthogonalEdgeStyle;orthogonalLoop=1;jettySize=auto;html=1;shadow=0;startArrow=none;startFill=0;strokeWidth=3;" parent="1" source="S7aSZjl13tURBBZYe18S-32" target="S7aSZjl13tURBBZYe18S-3" edge="1">
          <mxGeometry relative="1" as="geometry" />
        </mxCell>
        <mxCell id="S7aSZjl13tURBBZYe18S-32" value="" style="aspect=fixed;html=1;points=[];align=center;image;fontSize=12;image=img/lib/mscae/Cognitive_Services.svg;shadow=0;rounded=1;" parent="1" vertex="1">
          <mxGeometry x="1110" y="-920" width="183.33" height="110" as="geometry" />
        </mxCell>
        <mxCell id="S7aSZjl13tURBBZYe18S-33" style="edgeStyle=orthogonalEdgeStyle;orthogonalLoop=1;jettySize=auto;html=1;shadow=0;startArrow=none;startFill=0;strokeWidth=3;" parent="1" source="S7aSZjl13tURBBZYe18S-18" target="S7aSZjl13tURBBZYe18S-32" edge="1">
          <mxGeometry relative="1" as="geometry" />
        </mxCell>
        <mxCell id="S7aSZjl13tURBBZYe18S-34" style="edgeStyle=orthogonalEdgeStyle;orthogonalLoop=1;jettySize=auto;html=1;shadow=0;startArrow=none;startFill=0;strokeWidth=3;" parent="1" source="S7aSZjl13tURBBZYe18S-35" target="S7aSZjl13tURBBZYe18S-11" edge="1">
          <mxGeometry relative="1" as="geometry" />
        </mxCell>
        <mxCell id="S7aSZjl13tURBBZYe18S-35" value="User" style="html=1;strokeColor=none;fillColor=#0079D6;labelPosition=center;verticalLabelPosition=middle;verticalAlign=top;align=center;fontSize=12;outlineConnect=0;spacingTop=-6;fontColor=#FFFFFF;shape=mxgraph.sitemap.user;shadow=0;rounded=1;" parent="1" vertex="1">
          <mxGeometry x="-2293.93" y="-523.25" width="342.86" height="200" as="geometry" />
        </mxCell>
        <mxCell id="S7aSZjl13tURBBZYe18S-36" value="" style="shadow=0;dashed=0;html=1;strokeColor=none;fillColor=#EF8F21;labelPosition=center;verticalLabelPosition=bottom;verticalAlign=top;align=center;outlineConnect=0;shape=mxgraph.veeam.chargeback_and_billing_capabilities;rounded=1;" parent="1" vertex="1">
          <mxGeometry x="-430" y="-780" width="174.8" height="174.8" as="geometry" />
        </mxCell>
        <mxCell id="S7aSZjl13tURBBZYe18S-37" style="edgeStyle=orthogonalEdgeStyle;orthogonalLoop=1;jettySize=auto;html=1;shadow=0;startArrow=classic;startFill=1;strokeWidth=3;" parent="1" source="S7aSZjl13tURBBZYe18S-18" target="S7aSZjl13tURBBZYe18S-36" edge="1">
          <mxGeometry relative="1" as="geometry" />
        </mxCell>
      </root>
    </mxGraphModel>
  </diagram>
</mxfile>
